<svg width="101" height="71" viewBox="0 0 101 71" fill="none" xmlns="http://www.w3.org/2000/svg">
<g filter="url(#filter0_d)">
<path d="M73.5 34.2525V36.5L75.5 41.5L78.1781 47L80.5 50.0204L83.7574 51.7235H87L90.9496 51L94.5 52.2973L96 54.8662L95 59L92 62.704L85.2426 66H78.5L60.8123 62L55 59.5L47.4668 54.8662L44.1514 55.2821L32.4713 61.5L26.5 64.5L19 66L11 64.5L5.5 58.1398L5 55L5.5 52.5L8.5 51.7235L12 52.2235L16 52.2973L19 51L20 46.5L21.4343 36.5L24 22.5L28.0832 13L38 7L47 5.5L53.7408 6.5L58.5 8.50826L66.5 11L73.5 19.5L74.3573 29.5L73.5 34.2525Z" fill="white"/>
</g>
<path d="M8 57V54.5L12.5 55H18L23 54.5L28.5 49.5L31.5 42.5L32.5 35.5L31 34V25.5L32 17.5L37.5 13L49.5 10.5L57.5 11L64.5 13L70.5 21L71.5 30L70.5 35V37L73.5 43L75.5 48.5L78.5 52.5L83 54.5H87L91 53L93.5 54.5L90 61L84.5 63.5H78.5L74.5 62L61 59L53.5 54.5L47.5 51.5H44L42.5 52.5L31 59L25.5 62L19 63.5L12.5 62L8 57Z" fill="#C6B29C"/>
<path fill-rule="evenodd" clip-rule="evenodd" d="M49.464 9.99677L57.5853 10.5044L64.7991 12.5654L70.9819 20.8092L72.0055 30.0219L71 35.0495V36.882L73.9601 42.8021L75.9445 48.2594L78.8219 52.0959L83.1061 54H86.9093L91.0504 52.4471L94.1665 54.3168L90.3603 61.3854L84.6083 64H78.4093L74.3573 62.4805L60.8123 59.4705L53.2592 54.9386L47.382 52H44.1514L42.762 52.9262L31.2395 59.439L25.6792 62.4718L19 64.0131L12.2339 62.4517L7.5 57.1919V53.9414L12.5277 54.5H17.975L22.7859 54.0189L28.0832 49.2031L31.0144 42.3638L31.9697 35.6768L30.5 34.2071V25.4689L31.5287 17.2396L37.2782 12.5355L49.464 9.99677ZM49.536 11.0032L37.7218 13.4645L32.4713 17.7604L31.5 25.5311V33.7929L33.0303 35.3232L31.9856 42.6362L28.9168 49.7969L23.2141 54.9811L18.0249 55.5H12.4723L8.5 55.0586V56.8081L12.7661 61.5483L19 62.9869L25.3208 61.5282L30.7606 58.5611L42.238 52.0738L43.8486 51H47.618L53.7408 54.0614L61.1877 58.5295L74.6427 61.5195L78.5907 63H84.3917L89.6397 60.6146L92.8335 54.6832L90.9496 53.5529L87.0907 55H82.8939L78.1781 52.9041L75.0555 48.7406L73.0399 43.1979L70 37.118V34.9505L70.9945 29.9781L70.0181 21.1908L64.2009 13.4346L57.4147 11.4956L49.536 11.0032Z" fill="black"/>
<path d="M40 31.5L36.5 34.5L35.5 45.5L26.5 61.5L43.5 51.5H47.5L57 56.5L62 59L78.5 63.5L84.5 63L82.5 58.5L75 54.5L71.5 47.5L67 37.5V34L65.5 31.5L59 30.5H47.5L40 31.5Z" fill="#232425"/>
<path fill-rule="evenodd" clip-rule="evenodd" d="M47.4668 30H59.0382L65.808 31.0415L67.5 33.8615V37.3927L71.9518 47.2855L75.3759 54.1338L82.8871 58.1398L85.2426 63.4398L78.4536 64.0056L61.8207 59.4694L56.7671 56.9426L47.3765 52H43.6362L25.155 62.8713L35.0117 45.3481L36.0204 34.2525L39.7871 31.024L47.4668 30ZM47.5332 31L40.2129 31.976L36.9796 34.7475L35.9883 45.6519L27.845 60.1287L43.3638 51H47.6235L57.2283 56.0551L62.1793 58.5306L78.5464 62.9944L83.7574 62.5602L82.1129 58.8602L74.6241 54.8662L71.0482 47.7145L66.5 37.6073V34.1385L65.192 31.9585L58.9618 31H47.5332Z" fill="black"/>
<path d="M23 47.5L21.5 53L20.5 54.5H23L28.5 49.5L31.5 42.5L32.5 35.5L31 34L31.5 23.5L32 17.5L37.5 13L49.5 10.5L57.5 11L53 9L47 8L39.5 9.5L30.5 15L27 23L24.5 37L23 47.5Z" fill="#232425"/>
<path fill-rule="evenodd" clip-rule="evenodd" d="M46.9918 7.49174L53.1449 8.51726L57.7031 10.5431L57.4688 11.499L49.536 11.0032L37.7219 13.4645L32.4807 17.7528L31.999 23.5327L31.51 33.8028L33.0303 35.3232L31.9856 42.6362L28.9168 49.7969L23.1933 55H19.5657L21.039 52.7902L22.5094 47.3985L24.0063 36.9207L26.5182 22.8538L30.105 14.6554L39.315 9.02711L46.9918 7.49174ZM47.0082 8.50826L39.685 9.97289L30.895 15.3446L27.4818 23.1462L24.9937 37.0793L23.4906 47.6015L21.961 53.2098L21.4343 54H22.8067L28.0832 49.2031L31.0144 42.3638L31.9697 35.6768L30.49 34.1972L31.001 23.4673L31.5193 17.2472L37.2782 12.5355L49.464 9.99677L54.7558 10.3275L52.8551 9.48274L47.0082 8.50826Z" fill="black"/>
<defs>
<filter id="filter0_d" x="0" y="0.5" width="101" height="70.5" filterUnits="userSpaceOnUse" color-interpolation-filters="sRGB">
<feFlood flood-opacity="0" result="BackgroundImageFix"/>
<feColorMatrix in="SourceAlpha" type="matrix" values="0 0 0 0 0 0 0 0 0 0 0 0 0 0 0 0 0 0 127 0"/>
<feOffset/>
<feGaussianBlur stdDeviation="2.5"/>
<feColorMatrix type="matrix" values="0 0 0 0 0 0 0 0 0 0 0 0 0 0 0 0 0 0 0.5 0"/>
<feBlend mode="normal" in2="BackgroundImageFix" result="effect1_dropShadow"/>
<feBlend mode="normal" in="SourceGraphic" in2="effect1_dropShadow" result="shape"/>
</filter>
</defs>
</svg>
