<svg width="61" height="66" viewBox="0 0 61 66" fill="none" xmlns="http://www.w3.org/2000/svg">
<path d="M4.5 40.5L6 25L11 23H22L32 24L41 27V37L38 40.5L30.5 42.5L19 45H9L4.5 40.5Z" fill="#292822" stroke="black"/>
<path d="M5.5 61.5L1 41.5L3 27L2.5 23L6.5 11.5L14 5.5L23 2.5L29.5 1.5L35 2L42.5 3.5L48 6.5L53.5 11.5L56 16.5L58.5 17.5L59.5 19.5L58.5 20.5V23L59.5 24V29L57 34.5L54.5 44H48L38 61.5L22.5 64.5L19.5 63V46L21.5 44L38 40.5L40.5 37.5L41 27L37.5 25.5L25.5 23.5L12.5 23L5.5 24V27L4 40.5L8.5 45L11 61.5L9.5 63L5.5 61.5Z" fill="#BFB399" stroke="black"/>
<path d="M43 26.5C42.5 26.6667 41.4 27 41 27L40.5 37L38 40.5L21.5 44L20 46L19.5 62.5L22.5 64.5L38 61L48 44H54.5L56.5 37.5L56 28.5L55 27L51.5 26.5L49 28H46L43 26.5Z" stroke="black"/>
<path d="M3 24L3.5 21.5L5.5 20.5L17 19.5L32.5 21L41.5 23L43 26.5L41 27L31.5 24L22.5 23H11L5.5 24V27L3.5 26.5L3 24Z" stroke="black"/>
<path d="M41 18.5L49 15L59 17L59.5 19L58.5 20.5V23.5L60 24V26.5L51.5 25H48.5L41 22.5V18.5Z" stroke="black"/>
<path d="M2.5 18.5L4 17.5L2.5 25.5L1 24L2 23L3 19.5L2.5 18.5Z" fill="#BFB399" stroke="black" stroke-width="0.5"/>
<path d="M49 22V18L58 19.5V23.5L49 22Z" fill="#5D5646" stroke="black"/>
</svg>
