<svg width="69" height="64" viewBox="0 0 69 64" fill="none" xmlns="http://www.w3.org/2000/svg">
<path d="M5 16.5L3.5 23.5L7.5 21L14 18L23 15L33.5 13.5H44.5L51.5 14.5L49 9.5L41.5 3.5L33 1H25.5L19.5 2.5L12.5 6.5L8.5 10L5 16.5Z" fill="#474836" stroke="black"/>
<path d="M1.5 27L3.5 23.5L14 18L23 15L33.5 13.5H44.5L50.5 14.5L55 16.5L56 18V19.5L53.5 19L44.5 18.5L32.5 19.5L19 22L10.5 24.5L9 25.5L8.5 27L12 51.5L13 52.5L18 51L29 48.5L43 46.5L53.5 46L60.5 46.5L63 48L65 57L64.5 58L63 58.5H57L48 59L36.5 60.5L21 63.5H17L13 63L10 62L8.5 60.5L6.5 56.5L4 34.5L3 33L2 34.5L1 32.5V29.5L1.5 27Z" fill="#474836" stroke="black"/>
<path d="M8.5 27.5L12 51.5L13 52.5L28.5 48.5L43 46.5L54 46L60.5 46.5L63 48.5L67 46.5L68 45.5V44.5L63 22.5L61.5 21.5L56 19.5L44 18.5L32.5 19.5L19 22L10.5 24.5L9 25.5L8.5 27.5Z" fill="#4B4B48" stroke="black"/>
<path d="M14 44.5L12 31V29L12.5 27.5L14 26.5L21 24.5L32.5 22.5L47 21.5L56.5 22L59.5 23L61.5 25L65 40.5H64H62H53.5L45.5 41L32.5 42.5L23.5 44.5L15.5 46.5L14.5 45.5L14 44.5Z" fill="#929292" stroke="black"/>
</svg>
