<svg width="76" height="52" viewBox="0 0 76 52" fill="none" xmlns="http://www.w3.org/2000/svg">
<g filter="url(#filter0_d)">
<path d="M10.5 24L9.5 27.5L8 29L6.5 31.5L7 33.5L8.5 35C8.5 35 13.1345 37.5651 16.5 38.5C25.5 41 38.5 44.5 38.5 44.5H42.5L47 46H56L64.5 46.5H67.5L69.5 45.5L70 43L69.5 40.5L68 35.5L64 25L59.5 17L52 9.5L42.5 6H32.5L20.5 9.5L12 17L10.5 24Z" fill="white"/>
<path d="M10.5 24L9.5 27.5L8 29L6.5 31.5L7 33.5L8.5 35C8.5 35 13.1345 37.5651 16.5 38.5C25.5 41 38.5 44.5 38.5 44.5H42.5L47 46H56L64.5 46.5H67.5L69.5 45.5L70 43L69.5 40.5L68 35.5L64 25L59.5 17L52 9.5L42.5 6H32.5L20.5 9.5L12 17L10.5 24Z" stroke="white"/>
</g>
<path d="M15 31L12 29.5L13 24.5L14.5 18.5L22.5 12L33 9H42.5L50.5 12.5L57.5 18.5L61.5 26L65.5 36L66.5 40.5L67 43.5H64L58 40.5H53.5H49.5L40.5 38.5L31 36L21.5 33L15 31Z" fill="#1185B8" stroke="#110000"/>
<path d="M11 30L12 29.5L16.5 31.5L30.5 36L49 40.5H58L64 43.5L56 43H47.5L43 41.5H39.5L18 35.5L11.5 33.5L10 31.5L11 30Z" fill="#393939" stroke="black"/>
<defs>
<filter id="filter0_d" x="0.964699" y="0.5" width="74.5452" height="51.5" filterUnits="userSpaceOnUse" color-interpolation-filters="sRGB">
<feFlood flood-opacity="0" result="BackgroundImageFix"/>
<feColorMatrix in="SourceAlpha" type="matrix" values="0 0 0 0 0 0 0 0 0 0 0 0 0 0 0 0 0 0 127 0"/>
<feOffset/>
<feGaussianBlur stdDeviation="2.5"/>
<feColorMatrix type="matrix" values="0 0 0 0 0 0 0 0 0 0 0 0 0 0 0 0 0 0 0.25 0"/>
<feBlend mode="normal" in2="BackgroundImageFix" result="effect1_dropShadow"/>
<feBlend mode="normal" in="SourceGraphic" in2="effect1_dropShadow" result="shape"/>
</filter>
</defs>
</svg>
