<svg width="85" height="82" viewBox="0 0 85 82" fill="none" xmlns="http://www.w3.org/2000/svg">
<g filter="url(#filter0_d)">
<path d="M8.5 30.5L10.5 24L13.5 16L19.5 11L27 7.5L33.5 6H42.5L51.5 9L59.5 16L62.5 21.5L65.5 23L67 27L71.5 28.5L74 31L79 53V55.5L76.5 57.5L74.5 59L76.5 67L74.5 69.5L71.5 71H66L57 71.5L45.5 73.5L29.5 76H25L20 75.5L16.5 74L14 72L11.5 66.5L9.5 49.5L8.5 46L5.5 43.5V37.5L6.5 33.5L8.5 30.5Z" fill="white"/>
<path d="M8.5 30.5L10.5 24L13.5 16L19.5 11L27 7.5L33.5 6H42.5L51.5 9L59.5 16L62.5 21.5L65.5 23L67 27L71.5 28.5L74 31L79 53V55.5L76.5 57.5L74.5 59L76.5 67L74.5 69.5L71.5 71H66L57 71.5L45.5 73.5L29.5 76H25L20 75.5L16.5 74L14 72L11.5 66.5L9.5 49.5L8.5 46L5.5 43.5V37.5L6.5 33.5L8.5 30.5Z" stroke="white"/>
</g>
<path d="M13 25.5L11.5 32.5L15.5 30L22 27L31 24L41.5 22.5H52.5L59.5 23.5L57 18.5L49.5 12.5L41 10H33.5L27.5 11.5L20.5 15.5L16.5 19L13 25.5Z" fill="#474836" stroke="black"/>
<path d="M9.5 36L11.5 32.5L22 27L31 24L41.5 22.5H52.5L58.5 23.5L63 25.5L64 27V28.5L61.5 28L52.5 27.5L40.5 28.5L27 31L18.5 33.5L17 34.5L16.5 36L20 60.5L21 61.5L26 60L37 57.5L51 55.5L61.5 55L68.5 55.5L71 57L73 66L72.5 67L71 67.5H65L56 68L44.5 69.5L29 72.5H25L21 72L18 71L16.5 69.5L14.5 65.5L12 43.5L11 42L10 43.5L9 41.5V38.5L9.5 36Z" fill="#474836" stroke="black"/>
<path d="M16.5 36.5L20 60.5L21 61.5L36.5 57.5L51 55.5L62 55L68.5 55.5L71 57.5L75 55.5L76 54.5V53.5L71 31.5L69.5 30.5L64 28.5L52 27.5L40.5 28.5L27 31L18.5 33.5L17 34.5L16.5 36.5Z" fill="#4B4B48" stroke="black"/>
<path d="M22 53.5L20 40V38L20.5 36.5L22 35.5L29 33.5L40.5 31.5L55 30.5L64.5 31L67.5 32L69.5 34L73 49.5H72H70H61.5L53.5 50L40.5 51.5L31.5 53.5L23.5 55.5L22.5 54.5L22 53.5Z" fill="#929292" stroke="black"/>
<defs>
<filter id="filter0_d" x="0" y="0.5" width="84.5" height="81" filterUnits="userSpaceOnUse" color-interpolation-filters="sRGB">
<feFlood flood-opacity="0" result="BackgroundImageFix"/>
<feColorMatrix in="SourceAlpha" type="matrix" values="0 0 0 0 0 0 0 0 0 0 0 0 0 0 0 0 0 0 127 0"/>
<feOffset/>
<feGaussianBlur stdDeviation="2.5"/>
<feColorMatrix type="matrix" values="0 0 0 0 0 0 0 0 0 0 0 0 0 0 0 0 0 0 0.25 0"/>
<feBlend mode="normal" in2="BackgroundImageFix" result="effect1_dropShadow"/>
<feBlend mode="normal" in="SourceGraphic" in2="effect1_dropShadow" result="shape"/>
</filter>
</defs>
</svg>
