<svg width="88" height="58" viewBox="0 0 88 58" fill="none" xmlns="http://www.w3.org/2000/svg">
<path d="M1 50V47.5L5.5 48H11L16 47.5L21.5 42.5L24.5 35.5L25.5 28.5L24 27V18.5L25 10.5L30.5 6L42.5 3.5L50.5 4L57.5 6L63.5 14L64.5 23L63.5 28V30L66.5 36L68.5 41.5L71.5 45.5L76 47.5H80L84 46L86.5 47.5L83 54L77.5 56.5H71.5L67.5 55L54 52L46.5 47.5L40.5 44.5H37L35.5 45.5L24 52L18.5 55L12 56.5L5.5 55L1 50Z" fill="#C6B29C" stroke="black"/>
<path d="M33 24.5L29.5 27.5L28.5 38.5L19.5 54.5L36.5 44.5H40.5L50 49.5L55 52L71.5 56.5L77.5 56L75.5 51.5L68 47.5L64.5 40.5L60 30.5V27L58.5 24.5L52 23.5H40.5L33 24.5Z" fill="#232425" stroke="black"/>
<path d="M16 40.5L14.5 46L13.5 47.5H16L21.5 42.5L24.5 35.5L25.5 28.5L24 27L24.5 16.5L25 10.5L30.5 6L42.5 3.5L50.5 4L46 2L40 1L32.5 2.5L23.5 8L20 16L17.5 30L16 40.5Z" fill="#232425" stroke="black"/>
</svg>
